<?xml version="1.0" encoding="UTF-8"?>
<svg id="Layer_2" data-name="Layer 2" xmlns="http://www.w3.org/2000/svg" viewBox="0 0 168.51 168.51">
  <defs>
    <style>
      .cls-1 {
        fill: #0d1f22;
      }

      .cls-2 {
        fill: #e75a66;
      }

      .cls-3 {
        fill: #fff;
      }

      .cls-4 {
        fill: #eb7783;
      }
    </style>
  </defs>
  <g id="Layer_1-2" data-name="Layer 1">
    <g>
      <circle class="cls-4" cx="84.25" cy="84.25" r="84.25"/>
      <g>
        <path class="cls-1" d="M41.19,82.45c.07,0,.23.24.43.17-.05-2.82-1.91-4.74-3.25-7.02.28-.35,1.96.31,2.35.46.2.08.77.34,1.07.47.27.12,1.6.9,1.71.77-.67-4.04-2.08-8.33-.85-12.4,3.63-12.01,17.41-25.44,27.84-32.07,7.07-4.5,14.75-7.43,22.6-10.26l1.08-.04c-.1,1.25-.52,2.46-.66,3.7-1.4,12.07,8.36,21.66,17.01,28.47,2.91,2.29,12.06,8.03,13.47,10.67,1.76,3.29-.3,8.49-.89,11.93.29.29,5.43-2.01,6.16-2.4.04,1.02-.51,1.95-.77,2.91l-2.48,4.79c4.22-.78,8.92.63,10.66,4.83,1.28,3.09,1.1,6.91,0,10.03-1.91,5.4-7.99,9.11-13.56,9.46l.33,4.44c-.78-.23-1.33-.7-2.22-.51-.18.18.59,2.68.77,3.08.36.79.64,1.35.99,2.18.04.09,1.04.69-.14.75-1.09.05-3.52-.37-4.58-.74-.4-.14-1.03-.76-1.33-.57-1.39,3.55-3.11,6.83-5.33,9.91-5.38,7.47-12.06,12.71-20.4,16.58-4.01,1.86-8.46,3.49-12.88,3.92l-.22-.04c-2.47-4.47-7.34-7.22-11.23-10.42-6.69-5.49-16.78-14.15-19.43-22.5-.17-.52-.41-2.14-.59-2.32-.49-.48-2.71.2-3.51-.17.37-1.25.96-2.44,1.03-3.76-3.68-.61-7.77-2.39-10.19-5.3-4.14-4.99-5.04-15.17,1.86-18.18.52-.23,2.13-.83,2.6-.83.8,0,1.81-.09,2.57,0ZM98.5,104.47c6.85,3.49,11.48,2.22,14.58-4.91,5.34-12.32-3.26-24.37-16.26-24.98-4.98-.23-9.21,2.16-12.98,5.12-4.65-4.16-10.95-6.14-17.09-4.38-8.5,2.43-13.21,7.6-13.49,16.63-.15,4.89,1.86,10.75,5.94,13.59,3.55,2.47,10.08-.64,13.12-2.92,1.32-.99,1.92-2.19,3.11-3.23,1.61-1.4,3.58-2.15,5.71-1.59.79.21,2.24,1.25,2.69,1.27.61.03,1.91-.98,2.73-1.22,2.24-.67,4.72.28,6.35,1.88,1.99,1.96,2.92,3.37,5.61,4.74ZM48.8,93.75c-.22-2.28-.69-4.17-2.73-5.39-3.48-2.09-9.58-4.19-10.96,1.29,4.28-1.32,8.85.19,12.24,2.92.13.1,1.22,1.46,1.45,1.19ZM133.36,89.81c-.26-2.06-2.18-3.64-4.24-3.72s-7.19,1.73-8.4,3.49c-.74,1.08-1.16,2.69-1.05,3.99.21.23,1.77-1.23,2.07-1.44,3.34-2.27,7.62-4.05,11.62-2.33ZM133.67,90.36c-1.27-.92-5.87.79-7.2,1.54-.42.23-4.29,2.86-3.71,3.39,1.65,0,4.15-.16,3.51,2.23-.44,1.65-4.9,3.79-6.59,2.9-.13.15.08,3.26.34,3.51.84.85,4.06.13,5.14-.18,3.89-1.13,7.25-4.47,8.4-8.38.26-.87.86-4.49.13-5.02ZM37.93,90.32c-.88-.11-2.14,0-3.08,0-.66,0-.29,3.55-.18,4.12,1.01,5.16,6.37,9.83,11.65,9.93.33,0,1.95-.22,2.1-.4.23-.27.53-3.34.38-3.55-2.04,1.03-7.74-1.69-6.58-4.28.39-.88,2.85-.83,3.68-.94-1.61-2.03-5.38-4.55-7.96-4.88ZM89.71,107.95c-.08-.33.12-.33.29-.48.62-.57,1.56-.81,2.11-1.48,2.51-3.03-1.27-6.92-4.54-6.59-1.45.15-3.34,1.92-3.75,1.89-.36-.03-1.74-1.24-2.45-1.51-2.05-.78-3.83-.28-5.36,1.24-2.55,2.54-1.18,5.44,1.89,6.42.04.72-1.08.55-1.61.49-1.96-.22-2.95-1.44-3.44-3.23-1.6,1.73-3.52,3.44-4.53,5.57-10.58.56-6.04,12.28-2.48,17.86,8.62,13.53,27.2,13.75,36.02.27,3.54-5.41,8.51-17.99-2.37-17.92-1.03-2.47-3.21-4.16-4.74-6.3-.2,2.53-2.62,4.16-5.05,3.76Z"/>
        <path class="cls-3" d="M133.67,90.36c.73.53.13,4.15-.13,5.02-1.14,3.9-4.5,7.25-8.4,8.38-1.08.31-4.3,1.03-5.14.18-.26-.26-.46-3.37-.34-3.51,1.7.89,6.15-1.26,6.59-2.9.64-2.39-1.86-2.23-3.51-2.23-.58-.53,3.3-3.16,3.71-3.39,1.33-.75,5.93-2.46,7.2-1.54Z"/>
        <path class="cls-3" d="M37.93,90.32c2.58.32,6.35,2.85,7.96,4.88-.82.11-3.28.06-3.68.94-1.15,2.59,4.54,5.31,6.58,4.28.15.21-.15,3.29-.38,3.55-.15.17-1.77.4-2.1.4-5.28-.11-10.64-4.77-11.65-9.93-.11-.57-.48-4.12.18-4.12.94,0,2.2-.11,3.08,0Z"/>
        <path class="cls-3" d="M133.36,89.81c-4-1.72-8.28.05-11.62,2.33-.3.21-1.86,1.67-2.07,1.44-.1-1.31.31-2.91,1.05-3.99,1.21-1.76,6.31-3.57,8.4-3.49s3.98,1.66,4.24,3.72Z"/>
        <path class="cls-3" d="M48.8,93.75c-.23.26-1.33-1.09-1.45-1.19-3.39-2.73-7.96-4.24-12.24-2.92,1.37-5.47,7.47-3.37,10.96-1.29,2.04,1.22,2.51,3.11,2.73,5.39Z"/>
        <path class="cls-3" d="M98.5,104.47c-2.69-1.37-3.62-2.78-5.61-4.74-1.63-1.6-4.11-2.56-6.35-1.88-.81.24-2.11,1.26-2.73,1.22-.45-.02-1.9-1.06-2.69-1.27-2.13-.56-4.1.2-5.71,1.59-1.19,1.03-1.79,2.24-3.11,3.23-3.05,2.28-9.58,5.39-13.12,2.92-4.08-2.84-6.09-8.7-5.94-13.59.28-9.03,4.99-14.2,13.49-16.63,6.15-1.76,12.44.22,17.09,4.38,3.77-2.95,8-5.35,12.98-5.12,13,.61,21.6,12.67,16.26,24.98-3.09,7.13-7.72,8.4-14.58,4.91ZM74.48,81.76c-.4-1.3-2.65-1.78-3.85-1.88-4.9-.42-10.94,3.07-12.41,7.87,3-3.16,7.52-5.43,11.92-5.8,1.44-.12,2.94.17,4.34-.19ZM93.91,81.94c1.08.16,2.92,0,4.11,0,.61,0,2.28.45,2.95.64,3.33.92,6.17,2.77,8.6,5.18-1.32-4.87-7.41-8.33-12.39-7.85-.83.08-3.55.64-3.71,1.61-.04.26.28.4.43.43ZM71.57,99.05c-.95.72-3.21,2.05-4.36,2.05h-3.68c.15.29.89.54,1.19.61,3.68.87,7.15-.73,9.51-3.52.46-.54,2.03-2.76,2.13-3.35.24-1.39-.56-4.03-1.16-5.33s-1.38-2.37-2.6-3.22c.1-.23.44.02.6.08.64.26,2.09,1.32,2.63,1.82.3.27.44.77.87.92-.6-2.8-3.21-4.44-5.85-5.02-6.69-1.48-11.4,4.13-12.47,10.16.27-.05.97-1.1,1.2-.86.93,5.3,7.15,7.44,11.81,5.48l.17.17ZM104.26,101.11h-3.68c-.47,0-2.48-.83-3-1.11-.65-.35-1.4-.88-1.88-1.46,5.04,2.43,11.39.49,12.67-5.31l.94.85c.41-.5-.21-.71-.25-.81-1.33-4.01-2.63-7.31-6.98-8.9-3.74-1.37-8.97.18-10.74,3.9-.09.19-.37.68-.18.85,1.05-.95,2.13-2.15,3.45-2.71.16-.07.44-.37.57-.12-1.35,1.18-2.42,2.61-3.04,4.32-1.1,3.03-.92,4.6,1.02,7.12,2.27,2.95,6.15,4.83,9.91,3.98.29-.07,1.04-.32,1.19-.61Z"/>
        <path class="cls-1" d="M71.4,98.88c-4.66,1.96-10.89-.18-11.81-5.48-.22-.24-.92.81-1.2.86,1.07-6.03,5.78-11.64,12.47-10.16,2.64.58,5.25,2.23,5.85,5.02-.43-.16-.57-.65-.87-.92-.54-.49-1.99-1.56-2.63-1.82-.16-.06-.5-.31-.6-.08,1.22.85,1.98,1.88,2.6,3.22s1.4,3.94,1.16,5.33c-.1.58-1.67,2.8-2.13,3.35-2.36,2.79-5.83,4.39-9.51,3.52-.3-.07-1.03-.32-1.19-.61h3.68c1.16,0,3.42-1.33,4.36-2.05.24-.19.93-.39.68-.68-.07-.08-.74.47-.85.51ZM67.08,86.26c-2.29.31-4.67,2.21-5.64,4.29-.84,1.79-.81,2.66.14,4.38,2.5,4.5,9.04,4.03,12.47.87,1.41-1.3,1.25-2.22.73-3.97-1.02-3.44-3.92-6.09-7.7-5.57Z"/>
        <path class="cls-1" d="M104.26,101.11c-.15.29-.9.54-1.19.61-3.76.85-7.64-1.03-9.91-3.98-1.94-2.52-2.12-4.09-1.02-7.12.62-1.7,1.69-3.14,3.04-4.32-.13-.26-.41.05-.57.12-1.32.56-2.4,1.76-3.45,2.71-.2-.17.09-.66.18-.85,1.77-3.73,7-5.27,10.74-3.9,4.36,1.59,5.65,4.89,6.98,8.9.03.1.66.32.25.81l-.94-.85c-1.27,5.8-7.63,7.74-12.67,5.31.48.58,1.23,1.1,1.88,1.46.51.28,2.53,1.11,3,1.11h3.68ZM105.56,95.9c1.78-2.21,1.89-4.29.14-6.59-3.76-4.94-10.73-3.78-12.58,2.12-.72,2.31-.52,3.51,1.39,4.96,3.09,2.34,8.43,2.75,11.04-.49Z"/>
        <path class="cls-1" d="M93.91,81.94c-.16-.02-.47-.17-.43-.43.15-.97,2.88-1.53,3.71-1.61,4.98-.47,11.07,2.98,12.39,7.85-2.43-2.41-5.26-4.26-8.6-5.18-.68-.19-2.35-.64-2.95-.64-1.18,0-3.03.16-4.11,0Z"/>
        <path class="cls-1" d="M74.48,81.76c-1.4.36-2.9.07-4.34.19-4.4.37-8.92,2.64-11.92,5.8,1.46-4.8,7.5-8.29,12.41-7.87,1.21.1,3.45.58,3.85,1.88Z"/>
        <path class="cls-2" d="M71.4,98.88c.11-.05.78-.6.85-.51.25.29-.44.5-.68.68l-.17-.17Z"/>
        <path class="cls-3" d="M67.08,86.26c3.78-.52,6.67,2.13,7.7,5.57.52,1.75.69,2.67-.73,3.97-3.43,3.16-9.97,3.63-12.47-.87-.95-1.71-.98-2.59-.14-4.38.97-2.08,3.35-3.97,5.64-4.29ZM72.81,92.46c0-2.45-1.99-4.44-4.44-4.44s-4.44,1.99-4.44,4.44,1.99,4.44,4.44,4.44,4.44-1.99,4.44-4.44Z"/>
        <path class="cls-3" d="M105.56,95.9c-2.61,3.24-7.95,2.82-11.04.49-1.92-1.45-2.12-2.65-1.39-4.96,1.85-5.89,8.82-7.06,12.58-2.12,1.75,2.3,1.63,4.38-.14,6.59ZM103.92,92.48c0-2.46-2-4.46-4.46-4.46s-4.46,2-4.46,4.46,2,4.46,4.46,4.46,4.46-2,4.46-4.46Z"/>
        <path class="cls-1" d="M72.81,92.46c0,2.45-1.99,4.44-4.44,4.44s-4.44-1.99-4.44-4.44,1.99-4.44,4.44-4.44,4.44,1.99,4.44,4.44ZM68.17,90.83c0-.77-.62-1.39-1.39-1.39s-1.39.62-1.39,1.39.62,1.39,1.39,1.39,1.39-.62,1.39-1.39Z"/>
        <path class="cls-1" d="M103.92,92.48c0,2.46-2,4.46-4.46,4.46s-4.46-2-4.46-4.46,2-4.46,4.46-4.46,4.46,2,4.46,4.46ZM99.29,90.87c0-.75-.61-1.36-1.36-1.36s-1.36.61-1.36,1.36.61,1.36,1.36,1.36,1.36-.61,1.36-1.36Z"/>
        <circle class="cls-3" cx="66.79" cy="90.83" r="1.39"/>
        <circle class="cls-3" cx="97.93" cy="90.87" r="1.36"/>
        <path class="cls-3" d="M89.71,107.95c2.43.4,4.85-1.23,5.05-3.76,1.52,2.14,3.7,3.84,4.74,6.3,10.88-.07,5.92,12.51,2.37,17.92-8.82,13.47-27.4,13.25-36.02-.27-3.56-5.59-8.1-17.31,2.48-17.86,1.01-2.13,2.93-3.84,4.53-5.57.49,1.8,1.48,3.01,3.44,3.23.53.06,1.64.22,1.61-.49-3.07-.99-4.43-3.89-1.89-6.42,1.53-1.52,3.3-2.02,5.36-1.24.71.27,2.09,1.48,2.45,1.51.41.03,2.3-1.74,3.75-1.89,3.27-.33,7.05,3.56,4.54,6.59-.55.67-1.49.91-2.11,1.48-.16.15-.37.15-.29.48ZM77.6,105.35c.24.14.74-.04,1.07.05,1.25.32,2.29,1.06,3.26,1.87,1.64-2.09-1.94-5.71-4.03-5.05-.84.26-1.23,1.4-.98,2.2.02.06.63.91.68.94ZM88.64,102.17c-1.57.33-4,2.77-3.43,4.56.36,1.14.78.09,1.37-.29.29-.19.81-.44,1.14-.57,1.04-.41,2.17-.24,2.69-1.25.73-1.4-.16-2.79-1.76-2.45ZM83.72,116.34c.21-.25.38-3.96.35-4.54-.05-.89-.29-1.76-.35-2.64-.33.06-.28.36-.35.59-.52,1.83-.67,4.56,0,6.36.06.17.11.54.36.24ZM103.92,118.22c.12-.12.19-1.33.16-1.61-.22-1.91-2-2.99-3.84-2.67-1.39.24,1.52,1.1,1.2,1.71-.84,1.62-3.9,3.67-5.57,4.36-6.66,2.76-22.46,2.81-27.91-2.56-.26-.26-1.4-1.7-1.47-1.97-.14-.54,2.1-1.25,1.19-1.53-2.38-.72-4.72,2.04-3.57,4.26l1.2-1.88c3.25,4.62,7.61,8.55,13.14,10.14,9.66,2.79,18.87-1.91,23.93-10.14.23-.16.99,1.35,1.11,1.54.06.1.14.64.42.34ZM77.39,129.01c3.25,2.23,7.77,2.84,11.41,1.23.67-.3,1.65-.78,1.94-1.48-3.08.79-6.11,1.35-9.31.92-1.17-.16-2.36-.61-3.49-.79-.18-.03-.6-.18-.55.13Z"/>
        <path class="cls-1" d="M103.92,118.22c-.28.3-.36-.24-.42-.34-.12-.19-.88-1.7-1.11-1.54-5.06,8.24-14.27,12.93-23.93,10.14-5.53-1.6-9.89-5.52-13.14-10.14l-1.2,1.88c-1.15-2.21,1.2-4.98,3.57-4.26.91.27-1.34.99-1.19,1.53.07.26,1.21,1.71,1.47,1.97,5.44,5.36,21.24,5.32,27.91,2.56,1.68-.69,4.73-2.74,5.57-4.36.32-.61-2.59-1.47-1.2-1.71,1.84-.32,3.62.76,3.84,2.67.03.28-.04,1.49-.16,1.61ZM87.32,125.58c3.05-.37,6.54-2.15,8.73-4.28-1.8.54-3.57,1.21-5.44,1.49-3.88.59-9.22.58-13.11.03-1.84-.26-3.6-.99-5.41-1.35,2.66,2.37,6.15,3.82,9.69,4.26,1.68.2,3.04.06,4.69.02.3,0,.61.08.86-.17Z"/>
        <path class="cls-1" d="M77.6,105.35c-.05-.03-.67-.88-.68-.94-.25-.8.14-1.94.98-2.2,2.1-.65,5.67,2.96,4.03,5.05-.97-.81-2.01-1.55-3.26-1.87-.32-.08-.83.09-1.07-.05Z"/>
        <path class="cls-1" d="M88.64,102.17c1.6-.33,2.49,1.05,1.76,2.45-.52,1.01-1.65.83-2.69,1.25-.33.13-.84.38-1.14.57-.58.38-1.01,1.43-1.37.29-.57-1.78,1.87-4.23,3.43-4.56Z"/>
        <path class="cls-1" d="M77.39,129.01c-.04-.31.37-.16.55-.13,1.13.18,2.32.64,3.49.79,3.2.43,6.23-.13,9.31-.92-.29.71-1.27,1.19-1.94,1.48-3.65,1.61-8.16.99-11.41-1.23Z"/>
        <path class="cls-1" d="M83.72,116.34c-.25.3-.3-.07-.36-.24-.66-1.8-.51-4.53,0-6.36.07-.23.02-.53.35-.59.06.88.31,1.76.35,2.64.03.58-.14,4.29-.35,4.54Z"/>
        <path class="cls-3" d="M86.46,125.76c-1.64.04-3.01.18-4.69-.02-3.54-.43-7.03-1.88-9.69-4.26,1.82.36,3.57,1.09,5.41,1.35,3.89.55,9.23.56,13.11-.03,1.87-.28,3.64-.95,5.44-1.49-2.19,2.13-5.68,3.9-8.73,4.28-.27.03-.71-.12-.86.17Z"/>
        <path class="cls-2" d="M87.32,125.58c-.25.25-.55.16-.86.17.15-.29.59-.14.86-.17Z"/>
      </g>
    </g>
  </g>
</svg>